/* XPM */
static char *a9000404b5cb4340cd0a58fd132cc0f254jDgB4PWDE6oADr[] = {
/* columns rows colors chars-per-pixel */
"35 35 185 2 ",
"   c #9D6B00",
".  c #9B6C09",
"X  c #997E1A",
"o  c #A26D00",
"O  c #A37403",
"+  c #AB7B02",
"@  c #A47408",
"#  c #A27D0D",
"$  c #A87B09",
"%  c #B37600",
"&  c #BA7500",
"*  c #B77D00",
"=  c #BB7A00",
"-  c #C97D00",
";  c #6D8346",
":  c #718747",
">  c #738947",
",  c #718648",
"<  c #718849",
"1  c #789549",
"2  c #7D9B49",
"3  c #7FA147",
"4  c #9E871C",
"5  c #AF8004",
"6  c #BD8401",
"7  c #B6870E",
"8  c #AD831D",
"9  c #A78B1D",
"0  c #B58816",
"q  c #B98B16",
"w  c #B58A19",
"e  c #BE921C",
"r  c #998622",
"t  c #9C8C23",
"y  c #9C9123",
"u  c #9D922D",
"i  c #979231",
"p  c #9B9A33",
"a  c #AA8327",
"s  c #A38E22",
"d  c #B98E21",
"f  c #B68E2A",
"g  c #A39421",
"h  c #A39B2C",
"j  c #BA922E",
"k  c #A88731",
"l  c #AB943E",
"z  c #BA9435",
"x  c #A7A32B",
"c  c #AAB133",
"v  c #C48500",
"b  c #C78900",
"n  c #CC8B00",
"m  c #D69C04",
"M  c #DC9E00",
"N  c #E4A400",
"B  c #E9A300",
"V  c #F7B100",
"C  c #F9B401",
"Z  c #FFBA01",
"A  c #F8B80E",
"S  c #E3AC15",
"D  c #FCB911",
"F  c #C39720",
"G  c #C29A2C",
"H  c #C39C34",
"J  c #C39D39",
"K  c #CDA22E",
"L  c #CCA433",
"P  c #E3B228",
"I  c #FEC215",
"U  c #FEC21B",
"Y  c #FDC523",
"T  c #F9C42F",
"R  c #FFC92C",
"E  c #FFD32A",
"W  c #FFCE35",
"Q  c #FFD037",
"!  c #FFD13B",
"~  c #819648",
"^  c #819D49",
"/  c #929F41",
"(  c #B58D40",
")  c #87AD47",
"_  c #89AF47",
"`  c #84A349",
"'  c #93A647",
"]  c #9AB44A",
"[  c #93AE51",
"{  c #8EB257",
"}  c #8FB359",
"|  c #92B656",
" . c #95BC57",
".. c #9BBB53",
"X. c #92B659",
"o. c #95BA59",
"O. c #9ABD59",
"+. c #A0BF45",
"@. c #C09E42",
"#. c #D4AE49",
"$. c #E3B944",
"%. c #E0BD5D",
"&. c #CEB26B",
"*. c #CDB27B",
"=. c #97C057",
"-. c #9AC457",
";. c #9ECB56",
":. c #9DC259",
">. c #A6CE4F",
",. c #A1C255",
"<. c #A2CD56",
"1. c #A1C559",
"2. c #A4CB59",
"3. c #A9CD5A",
"4. c #A4D256",
"5. c #A9D657",
"6. c #A5D856",
"7. c #ACDB57",
"8. c #A7D35B",
"9. c #ACD359",
"0. c #ADDA5B",
"q. c #B0D55A",
"w. c #B4DA5A",
"e. c #AFE15F",
"r. c #B5E95E",
"t. c #B5EA5E",
"y. c #BBF25E",
"u. c #9FCD60",
"i. c #A4CD61",
"p. c #A6D261",
"a. c #AAD561",
"s. c #AEDB61",
"d. c #B3DC61",
"f. c #B4E460",
"g. c #BCE562",
"h. c #BBE961",
"j. c #F8CA43",
"k. c #EBC353",
"l. c #E6C65E",
"z. c #F0C856",
"x. c #FFD951",
"c. c #FCD45D",
"v. c #FFDC5B",
"b. c #C0F75D",
"n. c #E8CA6B",
"m. c #F8D56C",
"M. c #E2C473",
"N. c #EBCE7B",
"B. c #EAD178",
"V. c #F5D67C",
"C. c #FFE763",
"Z. c #FFE96C",
"A. c #FFE47A",
"S. c #D9C79A",
"D. c #E4CA86",
"F. c #EED482",
"G. c #F5DA85",
"H. c #F5D986",
"J. c #F9DD89",
"K. c #F9DF92",
"L. c #FFE482",
"P. c #FFEB85",
"I. c #FFE78E",
"U. c #FFEC8C",
"Y. c #F7E192",
"T. c #FBE593",
"R. c #FFEB92",
"E. c #FDE59C",
"W. c #FFEA9E",
"Q. c #E7D6A9",
"!. c #FBE7AA",
"~. c #FFF2A6",
"^. c #FFF3A9",
"/. c #F6E9BE",
"(. c #E4DCCB",
"). c #E4DED1",
"_. c #F1E8CC",
"`. c #FDF0CB",
"'. c #FFF9D7",
"]. c #E9E8E7",
"[. c #F0EEEA",
"{. c #FBF7E4",
"}. c #FEFAED",
"|. c #F9F7F2",
" X c #FFFFFF",
/* pixels */
"; a.O.o.o.o.X.} 1.5.2.O.o.O.o.o. .o.o.o.2.4.1. .O.O. .O.o.o.| 1.9.e.^ ",
"; 8.O.2.3.3.-.2.O.7.7.<.X.o.1.2.9.1.1.=.1.7.5. .o. .1.3.3.=.1.O.5.y.` ",
"~ y.-.1.8.5.4.8.:.X. .1.5.;.:.1.8.5.6.1.X.:. .2.0.-.:.8.5.4.4.:.X.d.3 ",
"> t.<. .=.;.=.;.3.1.q.O.1.4.;.t s y y g h 2.3.o.4.<. . .;.-.1.9.-.g.^ ",
", i.|  .{ O.3.X.1.5.=.|  .{  .$ + 5 + 5 + <.o.o.o.| O.X.O.2.X.1.9.a.1 ",
", s.:. .5.O.1.9.O.| o.O. .t O V.J.G.G.G.O O p =.O.O.o.9.:.1.5.=.X.i.2 ",
"; d.q.;.0.-. .4.O.O.O.X./ L B.R E E E R N.L . ' 1.5.;.7.1.o.4.O.O.a.2 ",
"; d.q.<.<.2.O.o.2.8.9...s T.C.C v b v V C.K.0 X O.w.<.4.2.O.o.2.4.f.` ",
"< u.X.-.=.X.X.O.;.-. .s n.U.Z M a 8 a m C P.n.$ i o.-.-.{ X.O.1.-.a.` ",
": g.2.;.:.:.5.-.X.1.] L ^.U B w I.I.I.e B U ^.L o ..;.:.1.4.-.O.-.a.` ",
"< h.7.4.2.1.9.4.2.O.>.G v.Z 6 k.R !.U k.0 C x.H   5.4.2.1.7.4.8.O.t._ ",
", 8. .=.-.| -.=. .i l _.Y b #.Y C c.J.I m n ! G.q 4 O.-.| :.=. .| p.` ",
"; p.O.o.o.O.X.{ 2.9 @. Xx.% n.Z V A Y.x.B * W ^.F O o.o.O.X.| 1.0.s.2 ",
"< a.O.2.3.9.;.<.O.g j  XR.& %.R C V T W.P 6 W W.e # 1.9.3.-.2.o.8.y.` ",
"~ y.;.=.8.5.4.4.=.r j  XL.= M.L.C C V c.D.v W E.e # O.4.5.4.<.:.X.d.` ",
"> e.1.=.o.-. .1.3.g j  XL.= (.W.j.V C I M.6 R ~.e #  .o.;.=.1.9.1.g.2 ",
", i.o. .X.O.2.| -.g j  XL.& ].}.m.T V Z S 6 W W.e #  .o.O.2.X.1.9.8.1 ",
": s.:.O.q.O.1.7.=.r z  XA.& ). X!.c.A Z N 6 W W.e # =.q.O.1.7.O.} i.2 ",
"; d.w.-.9.1.O.;.O.s d  XI.& ). X}.Y.j.Z N 6 W W.e # ;.0.1.o.<. .O.a.2 ",
"; d.5.;.<.4.X.o.2.g 6 '.R.& ). X X`.V.Y N 6 W W.e # ;.<.3.o.X.3.8.f.` ",
", i.| =.=.} o.O.-.y q E.! = ). X X XE.c.N 6 W W.e # -.=.{ o. .:.-.p.` ",
"> h.8.4.:.1.7.;.O.s q T.Q = ). X X X}.L.$.6 W ~.e # 8.-.1.7.;.O.:.0.` ",
", h.5.<.2.1.5.4.1.9 F ~.! % ]. X X X X'.N.= R ^.F O <.1.1.5.4.2.O.f.) ",
"< a.o.=. .X.=. .o.u s N.! b S. X X X X X#.n W F.0 t O.O.X.=.=. .o.p.2 ",
"; p.O.O.O.:.X.X.1.0.>.H v.Z = [. X X X[.7 D x.J   o. .:.:.X.o.1.0.t.^ ",
"< 0.O.1.9.9.<.2.O.2.+.K ^.U B f  X X Xf [.'.A.L   | ,.9.3.1.8.o.<.t.` ",
"~ b.;.O.<.4.8.<.-.X.1.u l.R.Z M k 8 O S. X XQ.@ c ;. .;.4.5.<.1.} d.^ ",
"; 0.;.=.o.-. .-.3.9.3.[ s Y.Z.V - K *. X X|.( X :.1.-. .-.=.-.3.8.g.2 ",
", p.X.o. .1.1.O.1.<. .o.' H n.W W U. X XQ.&.. ] X.X.X.O.:.2. .1.2.i.2 ",
": a.1.=.5.O.1.w.O.} o. .o.t @ N.G.z./.{.o . p O.O.1.=.5.O.1.7. .X.i.2 ",
"; d.w.;.5.1. .-.O.1.:.O.o.w.<.+ + + O + $ 1.O.X.2.w.<.5.2.O.;.O.:.a.2 ",
"; d.8.;.4.1.X.o.5.4.2.-.X.3.8.y 9 t r r x <.3.o.O.q.;.<.1.| o.3.4.f.` ",
": p.o.=.O.X. .:.O.=. .:.:.} o.;.o.o. .:.=.=. .:.o.| =.=.X. .:.O.=.p.` ",
": h.5.4.1.1.7.<.O.;.4.:.1.9.8.2.:.2.4.<.O.;.8.1.2.9.4.1.1.7.<.:.-.f.` ",
"; t.8.<.2.O.2.4.<.O.4.;.O.2.;.8.:.:.5.4.1.O.4. .1.8.;.2.:.9.4.<.O.f.) "
};
