/* XPM */
static char *_15bb2c0be234803d4fb2b016a80393d8e9AidK963skLywI[] = {
/* columns rows colors chars-per-pixel */
"35 35 180 2 ",
"   c #372433",
".  c #3B2432",
"X  c #44252E",
"o  c #49282F",
"O  c #4A272D",
"+  c #412630",
"@  c #462D35",
"#  c #492E35",
"$  c #4C3136",
"%  c #573233",
"&  c #5D3333",
"*  c #54353D",
"=  c #5C373F",
"-  c #6A362D",
";  c #7A3A2F",
":  c #733D2F",
">  c #633633",
",  c #6C3735",
"<  c #673932",
"1  c #6C3A32",
"2  c #64373A",
"3  c #683738",
"4  c #62393D",
"5  c #6B3D3C",
"6  c #733730",
"7  c #733B33",
"8  c #7A3F33",
"9  c #713F39",
"0  c #68403C",
"q  c #744032",
"w  c #7D4335",
"e  c #7F4837",
"r  c #72443C",
"t  c #794339",
"y  c #76483C",
"u  c #7D4A3B",
"i  c #322641",
"p  c #3B2C43",
"a  c #332944",
"s  c #38334B",
"d  c #3F3753",
"f  c #3D3A5A",
"g  c #453342",
"h  c #4B3F49",
"j  c #4E3245",
"k  c #583742",
"l  c #5B3C46",
"z  c #52394A",
"x  c #5B3D48",
"c  c #553341",
"v  c #423957",
"b  c #4A3F55",
"n  c #403D5C",
"m  c #623C41",
"M  c #4B4943",
"N  c #424052",
"B  c #44425A",
"V  c #4B4359",
"C  c #4D4C5D",
"Z  c #4D4356",
"A  c #544455",
"S  c #5F4952",
"D  c #5F5454",
"F  c #62474D",
"G  c #65494E",
"H  c #6B4543",
"J  c #754841",
"K  c #7C4D42",
"L  c #725049",
"P  c #684F52",
"I  c #6E625C",
"U  c #474B65",
"Y  c #4A4C63",
"T  c #4A4461",
"R  c #4F5366",
"E  c #4C5268",
"W  c #545264",
"Q  c #50576B",
"!  c #565B6C",
"~  c #5A5561",
"^  c #695C60",
"/  c #596271",
"(  c #65666E",
")  c #6A6A6E",
"_  c #6B6568",
"`  c #736862",
"'  c #6C6D72",
"]  c #626A73",
"[  c #726C72",
"{  c #6D7174",
"}  c #6D7678",
"|  c #727677",
" . c #727A7A",
".. c #86442E",
"X. c #814635",
"o. c #854A36",
"O. c #894C36",
"+. c #834B39",
"@. c #8A4F38",
"#. c #8E5137",
"$. c #8D5139",
"%. c #935235",
"&. c #985535",
"*. c #9B5937",
"=. c #925539",
"-. c #965839",
";. c #9C5D3A",
":. c #A45E34",
">. c #A05E38",
",. c #9F603B",
"<. c #A86437",
"1. c #A3633B",
"2. c #A9673B",
"3. c #A7683D",
"4. c #AB693C",
"5. c #B16E3D",
"6. c #B2703F",
"7. c #855342",
"8. c #8A5742",
"9. c #8A5844",
"0. c #8D5C48",
"q. c #935C40",
"w. c #9D6846",
"e. c #92634B",
"r. c #9D6D4B",
"t. c #85685C",
"y. c #8B6C5A",
"u. c #91755F",
"i. c #9C7454",
"p. c #A66C44",
"a. c #AA6E43",
"s. c #A46E49",
"d. c #A77148",
"f. c #B27241",
"g. c #B87642",
"h. c #BD7A43",
"j. c #B57E4E",
"k. c #A47855",
"l. c #A97C57",
"z. c #8C7866",
"x. c #987F66",
"c. c #817D75",
"v. c #C07D44",
"b. c #7A837E",
"n. c #98826B",
"m. c #878676",
"M. c #848272",
"N. c #898677",
"B. c #87867A",
"V. c #82867D",
"C. c #8A8678",
"Z. c #8C8B7A",
"A. c #8C8A77",
"S. c #8E927D",
"D. c #9F9074",
"F. c #90917B",
"G. c #A18765",
"H. c #AE8F68",
"J. c #A2896A",
"K. c #B19069",
"L. c #A29679",
"P. c #AE9C78",
"I. c #BEA477",
"U. c #CB8747",
"Y. c #CE8A48",
"T. c #D38E4A",
"R. c #D7924B",
"E. c #798482",
"W. c #858D83",
"Q. c #879087",
"!. c #889285",
"~. c #919180",
"^. c #949B8A",
"/. c #9C9B84",
"(. c #9AA38C",
"). c #B6B28F",
"_. c #A2AF97",
"`. c #A9B193",
"'. c #B3B597",
"]. c #BABB99",
/* pixels */
"X.=.v.% X O O O O O @ O O O o o o o O o @ O O O O o O O O o o O O X O ",
"7 $.;.@ X X X   X X X   X X X   . O X   + X X   . O X . . o o . . O + ",
"@.=.,.@ > 1 q % < 1 8 & > q w & > 1 q & > - q & > 8 q > & 1 q & & > X ",
"@.=.h.$ o.-.2.8 ..%.2.X.O.3.4.X.o.#.2.O.o.-.2.o.w 1.5.O.+.=.1.#.+.q X ",
"@.=.,.# +.#.>.y.x.k.3.8 +.>.2.w +.O.;.X.X.-.2.e w ,.4.o.w O.;.O.w 7 X ",
"o.=.U.$ g A ` Z L L.s.8 +.1.2.8 X.#.1.X.w @.1.X.8 *.4.o.w %.,.O.e q X ",
"7 $.h.# N } W.` +.#.p.o.@.;.2.o.O.3.6.@.w $.3.$.+.-.2.o.w ;.4.O.e 7 X ",
"7 $.;.@ / ^.b.!.Z.C.~.Z.C.Z.F.c.B.B.A.c.B.A.c.c.m.y.=.O.w ;.4.O.w q X ",
"7 @.2.@ B / / C S = F l k G P m F l k k F l * k 4 X.2.O.w =.1.O.w q X ",
"t =.v.# i f n 3 O.l.2.; o.&.:.w X.O.>.X.X.%.*.o.w ;.2.o.w O.,.O.e q X ",
"@.$.;.@ H H 4 k I n.p.8 +.$.>.X.o.@.>.o.w >.4.o.e #.,.O.w #.;.O.w 7 X ",
"w =.f.# O.*.1.5 +.&.1.w o.>.2.w X.=.1.X.X.=.1.+.w *.4.+.w $.1.O.e q X ",
"@.=.R.* e 2.2.8 O.=.1.w o.>.2.w X.2.4.X.X.$.;.X.e ,.4.o.w ;.4.O.e 7 X ",
"@.=.h.$ e 2.1.8 o.@.1.w o.1.2.w X.>.4.X.X.O.1.+.w ;.4.O.q *.4.o.e q X ",
"w @.;.# +.1.2.8 O.*.1.w o.1.p.w +.1.2.X.X.;.2.X.w *.4...u.K.<.O.e 1 X ",
"7 $.f.# e 2.1.8 O.p.2.8 +.>.2.8 X.>.2.X.e ,.4.X.e ,.5.t _ _.I.o.w q X ",
"o.%.h.# +.1.1.8 o.1.2.w o.=.1.w X.>.4.o.X.;.2.+.X.@.5 V E Q W.n.@.7 + ",
"X.=.g.# +.>.3.8 o.@.>.w o.-.2.w +.=.1.X.+.@.>.+.8 c s C E R B E.G.- o ",
"7 @.;.@ +.1.3.8 O.=.1.8 o.,.2.w X.;.1.X.X.-.2.+.6 z T ) ] } W.W.).q X ",
"7 =.h.# e ;.1.8 o.3.3.w +.1.2.w +.1.4.X.X.>.2.+.7 j ' { E U B._.'.q . ",
"o.=.R.* +.;.1.8 o.>.p.8 o.>.2.w X.>.4.X.X.&.2.o.6 z T [ !.(.`.(.].y X ",
"$.=.Y.$ u >.3.8 o.-.4.8 +.>.2.w +.>.2.X.+.-.>.+.7 * a p D I D ! t.q X ",
"+.$.3.# u &.1.8 X.>.2.8 o.1.2.w X.>.p.X.o.&.1.+.w O.4 B E U V = w 1 X ",
"X.#.;.# +.&.2.8 O.p.2.X.o.;.2.w +.>.4.X.o.;.1.+.w ,.1.t V A ;.%.w q X ",
"O.=.f.$ +.1.2.8 o.>.2.w o.-.2.w X.1.2.X.X.>.2.X.e =.1.#.= K 2.o.e 7 X ",
"#.=.f.# u -.;.z.D.P.p.8 o.-.1.w X.1.2.X.+.=.1.X.e %.1.O.w >.4.o.w q X ",
"X.$.;.@ p W E.g u J.a.8 X.O.>.8 X.>.1.w 8 &.2.o.w @.;.O.w ;.4.O.w q X ",
"7 @.1.@ C W.^./.e.$.p.0.e.p.p.7.7.p.j.9.9.w.p.K +.*.2.o.w ;.4.o.e q X ",
"7 $.>.@ / !. .E. .' } | [  .| ( { ' ' (  .' R Y ) r.2.O.w $.;.O.w 7 X ",
"@.$.,.@ s Q Q Z 5 1 0 3 2 r J 3 5 5 3 3 5 9 5 3 y ;.4.o.w O.,.O.e q X ",
"+.@.1.@ p f v , 8.H.4.w O.&.<.X.o.O.1.O.X.>.2.o.X.&.1.o.e $.;.O.u 7 X ",
"6 =.U.$ y $.q.x ^ i.3.w +.=.1.w X.=.1.X.X.>.2.e e =.1.o.w $.1.O.w q X ",
"7 =.T.* +.2.<.w X.O.1.w +.-.1.w X.1.2.X.e ;.4.o.w =.1.O.w ;.4.o.X.8 X ",
"7 @.3.# +.1.1.8 o.-.1.w X.=.1.w +.>.2.X.X.>.2.X.w =.1.O.8 ;.4.O.w 9 X ",
"M $.;.@ +.1.2.8 O.1.2.w o.1.2.w X.1.2.X.+.*.4.+.w >.3.o.w ;.4.O.w q X "
};
