/* XPM */
static char *_d4da1909c6242999b521fc4827169cb1mKx0ZKlVAtErxah[] = {
/* columns rows colors chars-per-pixel */
"35 35 91 1 ",
"  c #6D8346",
". c #718747",
"X c #738947",
"o c #718648",
"O c #718849",
"+ c #789549",
"@ c #7D9B49",
"# c #7FA147",
"$ c #819648",
"% c #819D49",
"& c #87AD47",
"* c #89AF47",
"= c #84A349",
"- c #8EB357",
"; c #8EB359",
": c #91B657",
"> c #95BC57",
", c #92B659",
"< c #95BA59",
"1 c #9ABD59",
"2 c #97C156",
"3 c #9AC357",
"4 c #9ECA56",
"5 c #9DC259",
"6 c #9FC858",
"7 c #A2CD57",
"8 c #A1C559",
"9 c #A2C958",
"0 c #A5CA59",
"q c #A6C95B",
"w c #A7CA5A",
"e c #A3CC58",
"r c #A3CD58",
"t c #A5CD59",
"y c #A8CB5A",
"u c #A8CD5A",
"i c #ACCF5A",
"p c #A1D056",
"a c #A2D056",
"s c #A2D057",
"d c #A6D157",
"f c #A7D157",
"g c #A7D357",
"h c #A4D456",
"j c #A7D456",
"k c #A9D557",
"l c #A6D856",
"z c #AAD957",
"x c #ADDB56",
"c c #AADD56",
"v c #ACDF55",
"b c #A6D158",
"n c #A7D35B",
"m c #A8D158",
"M c #A9D15A",
"N c #ACD25A",
"B c #AAD558",
"V c #ACD758",
"C c #AED958",
"Z c #ADDA5B",
"A c #B0D25A",
"S c #B0D759",
"D c #B0D55B",
"F c #B2D65B",
"G c #B1D859",
"H c #B5DA5B",
"J c #B1E156",
"K c #B1E25D",
"L c #B6EB5F",
"P c #B9F15F",
"I c #BDF45D",
"U c #9FCD60",
"Y c #A3CB62",
"T c #A4CE61",
"R c #A4D061",
"E c #A6D360",
"W c #AAD162",
"Q c #A9D461",
"! c #AAD661",
"~ c #AEDA61",
"^ c #ADD962",
"/ c #AFDF60",
"( c #B1DA61",
") c #B0DB61",
"_ c #B4DC61",
"` c #B7DF61",
"' c #B4E460",
"] c #B6E461",
"[ c #BBE562",
"{ c #BBE961",
"} c #C0F75D",
/* pixels */
" Q1<1<,;8Vt1<111:<,>y791<1<1<<-8N/@",
" n1wtu3t1kc9:<5wN9918vd><1ytt291zP=",
"$I55nVhd5,35V459dzhw,518z35dNhd1>(=",
"XL7>2424N5A19r4>324z8uy>7a1>e37N5[%",
"oR:1-1w:8k3;<,1<;93<N71,<:1;>w-8zQ+",
"o~5>V19k3;<115<7t1V4,><111<V88k3;T@",
" `D3C517111<<V77D<4e,11:8D4v8>711W@",
" ~C7at1,ydt8,in4k8,17gf,5S77w1<ed]=",
".U<35:,14325<;14>-<14355::33-,143E=",
".[9451k3,8458w541943134588458d216Q=",
"O{zat8kd71za1C7k88zz52z3uz7u8Vkd5]*",
"On122:23>;13<>15>>8>,,311>22:53<,T#",
" R<<<1;,yC91:<1<>,,>ud9<,11<1::8z/@",
"XQ1wNN4e<gzw<15tNw985c71118Ni3u,k{=",
"$I45thd92,58Ba29dkd3,258c417dd75,`=",
".K4><434MyV,379<333v8Nt<642<434N9[@",
".T:1,59,8d>:1;1<,851V4,1,:1,1y,8MT+",
".~5>D15C2;<1<51dt1V9,,<115>V18x5:T@",
" ]D4V814115>:H74V133,81-8H4v8>e>2~@",
" (V47t<,dNt5<Nn4M8<>dd7,8D47y,>0d]=",
"ot;53->153>8<;<6>:>54>55;:23->1>3R=",
".[nh55x4>5758Mr91ea51378wna58xe15)=",
"o]z7y8gke<ga<CrN18zd5>k5tBt95kd7<]&",
"on>5>,2><<>2<>12,13><<>21<>1:211>R@",
" R<155,,8Dk1:>113<:1thw>;1135:<8c]%",
"OZ19NNrt<7le115tNg753he1>18kM9t,7]=",
"$}614hn79,85kl289kd7>158J414dkr8:(=",
" Z92<213tMN:234<>>3Nyge-342<333Mn[@",
"oR;<11y>57:<1:><>y8>u3<1,:<12w<8tT+",
".~52B58v1-11<8>eu1x7:<11113V58v1:Y@",
" ]H4kw13185<>HdeD53>>85:8H4zw1315~@",
" (N475,<Ndw8:yg471,1M7y:5D478,<tn]=",
".R>3>;3512235:<e<:>13132<:52,1122R=",
".[Bk88x455d58Mhw8rht24d5wnh58v458K=",
"o]a4t5tar<n4<d4d55Bd51d1edee5taw>]*"
};
