/* XPM */
static char *caff17f6df404d72afb5f9525cab2d6fHyuCzoA3FtDCdjJU[] = {
/* columns rows colors chars-per-pixel */
"70 38 237 2 ",
"   c None",
".  c black",
"X  c #0B0200",
"o  c #150501",
"O  c #120C00",
"+  c #1D0B01",
"@  c #0E1000",
"#  c #141301",
"$  c #1B1401",
"%  c #161A01",
"&  c #1D1B01",
"*  c #19150B",
"=  c #1C1312",
"-  c #1D1C11",
";  c #200601",
":  c #220B00",
">  c #290F01",
",  c #251201",
"<  c #2A1302",
"1  c #221D00",
"2  c #2C1F00",
"3  c #2F1C09",
"4  c #3B1802",
"5  c #1E2304",
"6  c #252201",
"7  c #2B2501",
"8  c #2D2901",
"9  c #2D2F0A",
"0  c #322501",
"q  c #332C00",
"w  c #3B2E01",
"e  c #3B2305",
"r  c #353100",
"t  c #3B3301",
"y  c #3D3900",
"u  c #35321B",
"i  c #2D3023",
"p  c #462C08",
"a  c #423601",
"s  c #443B01",
"d  c #493E01",
"f  c #48330D",
"g  c #5C3C00",
"h  c #543705",
"j  c #402814",
"k  c #513111",
"l  c #643613",
"z  c #3E4711",
"x  c #454200",
"c  c #4C4300",
"v  c #4E4A00",
"b  c #4B470B",
"n  c #524501",
"m  c #544C01",
"M  c #5A4C01",
"N  c #584908",
"B  c #555201",
"V  c #5C5201",
"C  c #595C01",
"Z  c #53550E",
"A  c #5E4019",
"S  c #4E541F",
"D  c #414D1B",
"F  c #674608",
"G  c #625401",
"H  c #6B5502",
"J  c #655B01",
"K  c #6B5C01",
"L  c #7C5D03",
"P  c #755B09",
"I  c #62491A",
"U  c #775311",
"Y  c #754A0E",
"T  c #6C6202",
"R  c #616204",
"E  c #736402",
"W  c #7C6500",
"Q  c #746B02",
"!  c #7D6B02",
"~  c #766B08",
"^  c #7D7303",
"/  c #797607",
"(  c #77691D",
")  c #595939",
"_  c #714E24",
"`  c #596635",
"'  c #4E6339",
"]  c #5A664A",
"[  c #627048",
"{  c #8B5F14",
"}  c #836C01",
"|  c #8D6D01",
" . c #856708",
".. c #926503",
"X. c #847403",
"o. c #8A7402",
"O. c #867A03",
"+. c #8A7907",
"@. c #937302",
"#. c #937D02",
"$. c #9B7908",
"%. c #967912",
"&. c #836D15",
"*. c #A47C05",
"=. c #947029",
"-. c #A26425",
";. c #C77A1F",
":. c #8B8305",
">. c #8F8608",
",. c #948401",
"<. c #9B8301",
"1. c #9A8708",
"2. c #8F8B11",
"3. c #998516",
"4. c #999918",
"5. c #9B920B",
"6. c #A38304",
"7. c #A38B02",
"8. c #AA8C03",
"9. c #AA8309",
"0. c #B58806",
"q. c #AB9402",
"w. c #A5940B",
"e. c #AA9706",
"r. c #B19403",
"t. c #B29B03",
"y. c #BB9E04",
"u. c #B39D0B",
"i. c #BD9C0C",
"p. c #BD950D",
"a. c #A58512",
"s. c #B88719",
"d. c #BC9616",
"f. c #ACA408",
"g. c #B5A204",
"h. c #BCA303",
"j. c #BBAA03",
"k. c #BDA10A",
"l. c #B1AB08",
"z. c #BDA716",
"x. c #BEB60E",
"c. c #AF932A",
"v. c #A7A82E",
"b. c #CD8300",
"n. c #DF8F00",
"m. c #CC9B09",
"M. c #C38818",
"N. c #C69912",
"B. c #C2A605",
"V. c #CBA404",
"C. c #C4AB04",
"Z. c #CBAE05",
"A. c #C4AB0A",
"S. c #CBAE0A",
"D. c #C3A30B",
"F. c #D5AD0E",
"G. c #C5B403",
"H. c #CBB404",
"J. c #C9B80D",
"K. c #D2B602",
"L. c #D5BC02",
"P. c #D2B40A",
"I. c #DABD0B",
"U. c #D8BC04",
"Y. c #CBA713",
"T. c #DAB715",
"R. c #D8A910",
"E. c #E3BC0C",
"W. c #E7B30F",
"Q. c #E9BE14",
"!. c #E4BA17",
"~. c #EBAD03",
"^. c #D1AB29",
"/. c #E2BB20",
"(. c #C5C109",
"). c #D5C404",
"_. c #DAC305",
"`. c #DCCD06",
"'. c #D4C10B",
"]. c #DDC40C",
"[. c #DCCB0B",
"{. c #D5C80D",
"}. c #DED60B",
"|. c #CACE1E",
" X c #D9CF13",
".X c #E1CF03",
"XX c #E6C80B",
"oX c #F1CA0C",
"OX c #ECD406",
"+X c #EBDC04",
"@X c #EBD20B",
"#X c #ECDD0C",
"$X c #E4D708",
"%X c #FDD30D",
"&X c #F3DB0A",
"*X c #FDDD0E",
"=X c #F6D509",
"-X c #EBCB13",
";X c #E6C916",
":X c #EBD511",
">X c #E1DA19",
",X c #FDD416",
"<X c #FDDA15",
"1X c #FFDA1B",
"2X c #F7D713",
"3X c #EBE20B",
"4X c #F4E506",
"5X c #F3E40B",
"6X c #FEE40C",
"7X c #F5EC0D",
"8X c #FDED0D",
"9X c #F8EC07",
"0X c #FEF20C",
"qX c #E6E919",
"wX c #FEE413",
"eX c #FEEC13",
"rX c #FFE519",
"tX c #FFF213",
"yX c #FEFA14",
"uX c #FFF41B",
"iX c #FFFA1A",
"pX c #F7F015",
"aX c #E9F918",
"sX c #C2C635",
"dX c #FFD922",
"fX c #FFF121",
"gX c #FBFD29",
"hX c #E2E927",
"jX c #8D8C57",
"kX c #AC8B58",
"lX c #ACAC54",
"zX c #A5AC61",
"xX c #DFA550",
"cX c #C7AF5C",
"vX c #DBAE68",
"bX c #F1B967",
"nX c #F9F65D",
/* pixels */
"                                                                                                                                            ",
"                                                                                                                                            ",
"                                                                                                                                            ",
"                                                    ^.                  lX4.3./ R Z )                                                       ",
"                                                  n.b.L               (.k.A.w.,.X.T v y -                                                   ",
"                                                c.0.o.M.          sX{..X[.C.B.7.7.o.T v 9 i                                                 ",
"                                                ~.0. .i.c       sX_.`.3X`.).K.V.r.6.X.V r 5 i                                               ",
"                                                  *.L F n f   zXJ.:X$X#XL.).K.K.B.7.@.J y 6 5 @                                             ",
"                    hXaXqXqX|.v.jX                      d E N 2.].#X7X5X@X'.G.C.B.7.| K y 8 5 i                                             ",
"                gXtXtXyX7XqX(.e./ ` [                     +.9.T.wX4XeXpX).D.y.y.i.8.@.J z 7 6 5 =                                           ",
"            gXuXiXuXuXuX7X{.l.5./ C z ] [                 l.I.=XeX6X^.h H %.k.k.8.6.@.K y 8 6 6 *                                           ",
"          iXfXuXiXuXuXtX3XG.l.5./ C x b ' ' [ jX        b 5XwXeXeX:X$.W cXh F P L a.@.E v q 8 9 -                                           ",
"      nXiXyXuXuXiX8X0X7X).j.f.:.T B v x b S z C / :.2.4.3XtXwXrX=X].h.e.1.&.( d I H L H N 8 O 6 #         w 0                               ",
"      iXiXyXuXpXtXtX7X+X'.l.w.^ B c x c v v b c / f.J.>X8XeX<X%XoXA.D.u.7.Q n M K E E M w 1 # o X X & 6 r q 1                               ",
"      iXuXuXfXuXtXeX5X`.j.l.,.Q c x v v v B B m R l.>X7XeXwX,X,XE.S.s.vX4 e a V ^ } H 0 1 $ 1 $ O X # % 6 & 6                               ",
"      eXtXfXuXtXtX5X$X(.j.t.:.B c c c c B B B m J x.pX0XeXwX<X,X,XF.Y.s.=.4 j U s.#.M 1 # & 1 1 $ *                                         ",
"      eXtXtXeXeX0X5X).G.y.w.X.c c m v m m N B B ~  X0X8XeX1X1XdXdXQ.F.i.$.P %.M.N.$.N # , * + $ # =                                         ",
"      6X0X7X6X5X#X].A.g.8.#.E c c c c c m B V V O.5XyX0XeX<X<XdX1X,XE.T.P.Y.m.M.9. .V 6 f e X * # =                                         ",
"    . eX$X}..X:X].H.e.7.<.X.M c c d c m M M V G 7.eX0XtXeX6X6X*X<X:XS.D.8.!.m.V.0.o.J t 7 & $ $ 6 1                                         ",
"    . OX[.L.G.G.G.q.,.O.O.T c c d d c v m M V G u.7X0XwX6X8X.XS.$.| } F Y.W.Q.T.9.@.T N 6 6 6 8 7 *                                         ",
"    . U.C.h.t.t.<.O.Q T J d d d d x c n m M V T t.+X8XrX6X5Xt.T.<X=X-XT.*.{ m.m.*.$.E c 7 1 7 8 2 *                                         ",
"    . H.h.q.7.,.Q m c c d s d a s d c c m B V ! t.5X8XtXeX8X*X<X,XoXoXE.R.w.F p.*...H s 1 1 8 8 1                                           ",
"    . h.t.,.:.^ V s s y a a a a a d d c m m V +.j.5X9X8X8XeXwX<XN.a.;X;XT.Y.*.W h n h 7 $ 6 7 7 &                                           ",
"      q.<.o.^ T x s a y t w w w a s d c n N J 1.K.6X9X9X0X4XeX=XQ.Y =./.;X/.d.!  . .w 2 1 6 1 6 $                                           ",
"      6.@.! E V y y y t q w q q s s s d c m ~ e.XX=X4X9X9XtX4XOX2XM.h l ..N.N.{ %.N.G r 6 1 6 $                                             ",
"      @.! K V c s y t q 8 7 7 t y a d c c B :.k.T.XX6X4X3X4X&X*X=X-XM.p bXxXg  .3.a.N q 1 1 6 $                                             ",
"      ..K J M a y t r q 1 7 r s d s d c d G ,.B.U.K.E.+X+X5X&X2X@XXXT.-.Y A _ kXf 3 X X $ 1 6                                               ",
"      G G M c a t t q 6 7 7 y a s d d d d J 1.A.F.y.y.h.$X3X+X@XI.I.XXT.;.-.U I e j k k 1 1 $                                               ",
"      n M d a t t r q 6 7 q t y a s d d c V #.k.h.8.8.q.J.`..X-XI.F.A.A.Y.9.{ U Y F h 2 & 1                                                 ",
"      a s a t t r q 7 : 7 q w y y s s d x n Q <.7.#.} } W G.[.L.Z.A.k.8.#.} H N s q 0 2 5 # @                                               ",
"      7 q w w t r 7 , : 1 q q t t a s d s x V ~ ! K V K G E G.].P.Z.h.6.W G c s w 7 8 6 $ $ #                                               ",
"      7 0 q q q 7 7 ; ; : 7 q r w y a a s s s B n n M J T T X.t.P.P.S.w.} G d t q 7 7 & # & # #                                             ",
"      7 7 8 0 7 7 , ; ; + 1 7 r q t t y y a y y t y M J K H n M w.q.r.6.^ E K c q 7 6 1 1 1 % @                                             ",
"      1 6 6 7 1 1 < > ; ; : 1 7 t q t r q q r r r s m V M s 2 1 2 V G G M V v y 8 6 & 5 1 1 5 #                                             ",
"      6 6 1 1 & , > > > ; ; , 7 q q 8 r q q 7 8 r y c d y 8 6 1 1 $ & 6 8 8 7 8 6 6 1 & 6 6 & %                                             ",
"      6 6 & $ > > , > : ; ; : 2 8 8 q q 7 8 6 8 t y s s y x s y w w t t q q r y 8 6 6 6 6 1 5 &                                             ",
"      6 6 6 $ , > < > : > + ; $ 6 8 8 8 8 6 8 r r r r r t y s s a s y q q q s m s 8 6 6 6 6 5 #                                             ",
"      $ & $ # + + + + + + o o o # $ & & & $ & 6 6 5 6 6 6 6 7 8 7 7 6 5 & & r y t 8 6 5 & $ @ O                                             "
};
