/* XPM */
static char *_ce04e6139ce4739863f8a116af66b7eGXLNHFhfcbaC0cXx[] = {
/* columns rows colors chars-per-pixel */
"35 35 224 2 ",
"   c #1F021B",
".  c #281D14",
"X  c #3B2B1B",
"o  c #3C3B15",
"O  c #351936",
"+  c #362926",
"@  c #312631",
"#  c #433718",
"$  c #442E08",
"%  c #4A3D23",
"&  c #473D22",
"*  c #46383A",
"=  c #513430",
"-  c #4D431B",
";  c #4D4A1C",
":  c #474016",
">  c #56471E",
",  c #59541A",
"<  c #4D4224",
"1  c #4D4929",
"2  c #544C2A",
"3  c #5B4D2A",
"4  c #544625",
"5  c #5A552E",
"6  c #5A5726",
"7  c #5C5532",
"8  c #5D5933",
"9  c #575431",
"0  c #534730",
"q  c #645729",
"w  c #665A33",
"e  c #5F6738",
"r  c #6C642C",
"t  c #726428",
"y  c #7A752B",
"u  c #6A6435",
"i  c #6D6C35",
"p  c #646439",
"a  c #6B6639",
"s  c #6D6B39",
"d  c #656234",
"f  c #736A35",
"g  c #756837",
"h  c #747237",
"j  c #7B7435",
"k  c #73713B",
"l  c #7A723B",
"z  c #7C7A3A",
"x  c #6E703C",
"c  c #4D364C",
"v  c #4C4547",
"b  c #594B43",
"n  c #594B55",
"m  c #6A4D51",
"M  c #747243",
"N  c #787745",
"B  c #756656",
"V  c #7A7956",
"C  c #6C6E43",
"Z  c #5C4E62",
"A  c #795772",
"S  c #77667D",
"D  c #847A27",
"F  c #847B3B",
"G  c #887D39",
"H  c #867C35",
"J  c #827B43",
"K  c #857A57",
"L  c #967F60",
"P  c #7A833D",
"I  c #748237",
"U  c #6E8547",
"Y  c #6D8648",
"T  c #7D8A42",
"R  c #748B49",
"E  c #798543",
"W  c #7D9B4B",
"Q  c #799148",
"!  c #798859",
"~  c #86823D",
"^  c #8B8539",
"/  c #938C3C",
"(  c #94883B",
")  c #979438",
"_  c #8C8427",
"`  c #A08D3F",
"'  c #A2943C",
"]  c #A59C39",
"[  c #A7A43B",
"{  c #B6AA3C",
"}  c #B8A73D",
"|  c #BCB637",
" . c #BDB92B",
".. c #C5BC3D",
"X. c #C2BC34",
"o. c #C1B723",
"O. c #CBC331",
"+. c #CAC53A",
"@. c #D2CC3B",
"#. c #D0C933",
"$. c #868B44",
"%. c #928D41",
"&. c #829D4B",
"*. c #8A9D4A",
"=. c #9D9442",
"-. c #999845",
";. c #858958",
":. c #869557",
">. c #A59A45",
",. c #A4995B",
"<. c #84A44A",
"1. c #87A74B",
"2. c #99A649",
"3. c #89B149",
"4. c #8EA957",
"5. c #97AA5B",
"6. c #8DB257",
"7. c #8FB359",
"8. c #95BC57",
"9. c #92B659",
"0. c #95BA59",
"q. c #9ABD5A",
"w. c #94B458",
"e. c #ABA344",
"r. c #A6AD45",
"t. c #A9A749",
"y. c #B5A441",
"u. c #BCAD43",
"i. c #B8AD48",
"p. c #AEB449",
"a. c #BDB343",
"s. c #B8B54A",
"d. c #A4AB54",
"f. c #ABA959",
"g. c #B9AC52",
"h. c #B0AC5B",
"j. c #BAAA5E",
"k. c #ACB959",
"l. c #BCB857",
"z. c #898968",
"x. c #87936B",
"c. c #91966F",
"v. c #A79B66",
"b. c #98A966",
"n. c #9CBD63",
"m. c #9BB867",
"M. c #9BB778",
"N. c #94A970",
"B. c #A6AA6B",
"V. c #A4B864",
"C. c #B8B567",
"Z. c #A3B872",
"A. c #B6B16C",
"S. c #C3BB46",
"D. c #C5BA46",
"F. c #C3B958",
"G. c #C0AF45",
"H. c #C1BC66",
"J. c #97C057",
"K. c #9AC457",
"L. c #9ECA56",
"P. c #9CC259",
"I. c #9ECA58",
"U. c #B4CA4B",
"Y. c #A1CE56",
"T. c #A1C55A",
"R. c #A4CA59",
"E. c #A9CD5B",
"W. c #A9C459",
"Q. c #B8C65A",
"!. c #A4D256",
"~. c #A9D557",
"^. c #ACDB57",
"/. c #A6D35B",
"(. c #ACD359",
"). c #ACDA5C",
"_. c #A5D856",
"`. c #B1D45B",
"'. c #B7D859",
"]. c #B9D04C",
"[. c #AFE15F",
"{. c #B5EA5E",
"}. c #B5E95E",
"|. c #BBF25E",
" X c #9FC864",
".X c #A9C365",
"XX c #A4CE62",
"oX c #A6C567",
"OX c #B6CB64",
"+X c #B3C163",
"@X c #A6D261",
"#X c #AAD561",
"$X c #AEDA61",
"%X c #B3DC61",
"&X c #A7C771",
"*X c #B3E361",
"=X c #BCE562",
"-X c #BBE961",
";X c #C7C549",
":X c #D5CC44",
">X c #CBD048",
",X c #D3D147",
"<X c #C8C952",
"1X c #D4CB54",
"2X c #CAD152",
"3X c #C0F75D",
"4X c #CFCA64",
"5X c #D1C761",
"6X c #797286",
"7X c #877795",
"8X c #9B8A86",
"9X c #8E9687",
"0X c #9B9797",
"qX c #A69C8E",
"wX c #9AAB93",
"eX c #A8B786",
"rX c #AEA79C",
"tX c #A4B499",
"yX c #B7AB94",
"uX c #9A91A6",
"iX c #9EA9A4",
"pX c #ACAFA9",
"aX c #C5BAAE",
"sX c #A4C188",
/* pixels */
"Q #Xq.q.q.q.0.7.T.(.!.P.q.q.q.n.Z.Z.Z..XW.!.Y.8.8.q.0.q.8.q.9.Y.).$X1.",
"U @Xq.R.E.E.K.Y.q.~.^.R.7.0.T.&XeXA.C.Q.Y.[.!.8.0.q.R.E.E.J.R.0.~.|.1.",
"&.|.K.P.!././.E.q.8.K.P./.Y.Z.Z.B.A.C. .k.T.q.R.^.K.T.E.!.!.E.P.9.%X<.",
"Q }.Y.0.J.2.5.T.(.P.`.q.Y.XXtXB.t.h.C.|  .OXE.0.Y.Y.8.8.Y.K.Y.(.P.=X<.",
"R /.9.q.7.I z f.T.^.K.9. XeXeXf.t.h.C.D.o.<XV.q.0.8.q.6.q.Y.9.T.~.#XW ",
"R $XP.8.(.P u k.P.9.9.q.M.pXC.F.+XH.F.S.X.;XW.P.q.q.8.`.q.W.!.K.0.XX&.",
"Y %X(.L.^.Q r d.q.q.J.8.wXz.>.F.4X1XF.s.D. .Q.9.T.`.L.^.T.8.!.q.q.@XW ",
"R %X^.Y.!.P 6 t.E.!.!.oXx.$ > G ,.g.F.t.l.O.>XoXP.`.Y.Y.R.q.8.R.!.*X1.",
"R  X8.K.K.Q j t.OXK.K.b.w $ # % % g i.e.G ' ..Q.9.w.K.K.6.9.q.I.K.#X1.",
"R =XR.L.P.*.y ) .XT.L.! - 6 w q # u i.>.% % t H V.R.L.P.oXOXT.0.P.).<.",
"R -X~.!.E.&.6 t s.n._.! ; s k k g ( D.%.% + X # r (.!.oXb.f.OX(.q.}.3.",
"R /.8.K.K.<.p 4 _ n.n.! o 5 5 7 p %.i./ a u r 3 > b.q.0.;.D k.0.9.XX<.",
"R @Xq.0.q.q.4.:.q Q.V.C o ; > 4 1 g t.=.s p F / D :.q.5.;.D d.W.^.$X<.",
"R @Xq.R.(.E.I.q.! y z 1 < V B.r o w >.e.h 7 8 k ) B.R.w.N H 2.8._.-X1.",
"&.|.L.q.Y.~.!.R.4.6 6 : 9 0XaXv.; - ( i.z 8 ; , ) k.q.:.r =.r.q.9.%X<.",
"R [.Y.8.0.L.8.Y.R.C ; 1 Z S 6XyXM # %.D.H u F J j 2.5.s - ( p.(.R.-X&.",
"R @X7.q.9.q.R.9.I.x.2 9 m O @ yXK , t.1XD g rXaXg ( ( q - f 2.T.!.XXQ ",
"R $XP.8.`.q.I.^.q.9Xp 1 n * * 8XK t l.1X_ B 7XuXqXD D $.:.4.R.K.9.XX<.",
"U *X'.L.~.T.q.L.n.wXC 9 v = m 8XN D ;X:X-.n O c rX( 5.T.T.8.L.8.P.#XW ",
"Y %X~.L.Y.E.0.9.XXiXV q * c A L =.[ S.,Xt.b   = rXf..XY.R.0.w.R.!.*X1.",
"R XX7.K.P.6.8.P. XiXz.h q b B ~ >.f.C.1X..w O m yXg..XK.6.w.q.K.K.@X1.",
"Q =X!.!.P.T.^.I.eXiXh.) ^ H ( _ $.,.j.G.:XG c A yX} E.P.T.^.Y.q.I.$X1.",
"R -X/.!.R.P.!./.sXiXs.X.a.p.r.N M >.y.{ 1XG.B Z >.} `.T.T.~.!.Y.0.*X3.",
"R /.8.q.J.7.J.n.tX0Xt.X.S.p.$.w g ' u.a.H.5X>.D ` ..OX8.9.q.8.q.0.@XW ",
"R XXq.q.P.P.7.m.iX9X-.{ p.[ s 9 g =.G.G.H.F.;X .{ X.`.q.P.9.0.T.^.*X<.",
"R $Xq.T.(.(.L.oXiXz.-.{ r.~ 5 0 w J G.G.g.G...:X@.o.<X`.(.I.E.0.Y.-X1.",
"&.|.Y.0.Y./.!. XwXV ~ [ =.f 1 1 3 G y.y.y.} G.;X:X#.<X(.!.~.Y.K.9.%X<.",
"R ).L.P.0.K.J.m.9XN z / %.8 & % 3 F >.] ' ..u.G.<X@.2Xk.K.K.K.E.!.=XW ",
"R XX9.0.q.P.R.M.c.C l %.~ 2 X . = g G >.y.G.>.>.S.@.>XW.q.R.8.I.R.XXW ",
"R ).P.J.(.q.T.&Xx.h h $.l 2 o @ @ q D G =.t 3 G S.#.,X2Xk.L.^.q.7.XX<.",
"Y =X'.L.~.R.8.M.V i h h s 8 3 v = % 3 q w + + H a.O.,X'.R.q.K.q.P.$X&.",
"Y $X(.L.Y.T.9.M.N i x i p p a a w % = 3 5 7 w ~ >...@.].I.9.0.E.!.*X1.",
"R @X8.P.q.7.q.N.N i s p u x x u d 5 2 q / D.a./ / a.@.U.9.q.K.q.P.@X1.",
"R =X~.!.T.T./.N.h i s s s k k k s s f ~ D.:X:Xe.J i.#.U.T.^.Y.P.I.).1.",
"R *X!.Y.E.P.R.m.z P T E E $.T T $.E $.2.D.;X;Xr.*.p.;XU.T.!.!.Y.0.*X3."
};
