/* XPM */
static char *c69a8a5613b64b30f62a81e158e3caf2ZMfkJjCr5YDvjS2Z[] = {
/* columns rows colors chars-per-pixel */
"35 35 246 2 ",
"   c #010101",
".  c #050608",
"X  c #011C01",
"o  c #00190A",
"O  c #0B0918",
"+  c #120419",
"@  c #071417",
"#  c #171011",
"$  c #210718",
"%  c #26111E",
"&  c #04310B",
"*  c #042C18",
"=  c #172819",
"-  c #073717",
";  c #16361C",
":  c #2C2918",
">  c #170429",
",  c #001C29",
"<  c #1E1E24",
"1  c #181639",
"2  c #241B28",
"3  c #36172C",
"4  c #2A1C35",
"5  c #361837",
"6  c #052725",
"7  c #182826",
"8  c #053725",
"9  c #193827",
"0  c #1B3D2A",
"q  c #142C31",
"w  c #023B31",
"e  c #193733",
"r  c #25242B",
"t  c #24332B",
"y  c #263729",
"u  c #233A2B",
"i  c #363529",
"p  c #2A2937",
"a  c #312933",
"s  c #2C3434",
"d  c #243C33",
"f  c #283937",
"g  c #2A3A3A",
"h  c #343838",
"j  c #410D35",
"k  c #412F2D",
"l  c #0D510E",
"z  c #064D18",
"x  c #1A441D",
"c  c #174D1F",
"v  c #065615",
"b  c #1A541C",
"n  c #136C18",
"m  c #376E1F",
"M  c #094727",
"N  c #184927",
"B  c #075828",
"V  c #1A542A",
"C  c #0E4E32",
"Z  c #1A4937",
"A  c #0D5234",
"S  c #185633",
"D  c #1D543A",
"F  c #264729",
"G  c #36472A",
"H  c #23522D",
"J  c #28552A",
"K  c #35542E",
"L  c #234333",
"P  c #2A4433",
"I  c #26413D",
"U  c #284838",
"Y  c #2C4B3B",
"T  c #344839",
"R  c #245A32",
"E  c #275836",
"W  c #24523B",
"Q  c #2B543B",
"!  c #2A5B3B",
"~  c #34523C",
"^  c #375A39",
"/  c #096724",
"(  c #186729",
")  c #19762A",
"_  c #166537",
"`  c #177637",
"'  c #26662B",
"]  c #27752B",
"[  c #317B29",
"{  c #286738",
"}  c #33663E",
"|  c #277737",
" . c #25723B",
".. c #357839",
"X. c #46483C",
"o. c #465834",
"O. c #416B30",
"+. c #1B1841",
"@. c #013E43",
"#. c #053D50",
"$. c #3A3A44",
"%. c #443C4E",
"&. c #1D5040",
"*. c #2A4A42",
"=. c #384945",
"-. c #2C5443",
";. c #275846",
":. c #385944",
">. c #324E52",
",. c #365B52",
"<. c #136F46",
"1. c #286344",
"2. c #2C6C44",
"3. c #376847",
"4. c #277646",
"5. c #367747",
"6. c #367056",
"7. c #397B58",
"8. c #444C48",
"9. c #495845",
"0. c #535B47",
"q. c #555454",
"w. c #605B44",
"e. c #456748",
"r. c #5A6A49",
"t. c #487D44",
"y. c #5C774C",
"u. c #487A56",
"i. c #646E4B",
"p. c #68744B",
"a. c #687A54",
"s. c #504F64",
"d. c #5B7A64",
"f. c #20811F",
"g. c #198129",
"h. c #18843B",
"j. c #338D2B",
"k. c #288337",
"l. c #33803D",
"z. c #358838",
"x. c #2D9139",
"c. c #3AB239",
"v. c #44871C",
"b. c #48872A",
"n. c #538737",
"m. c #479435",
"M. c #4E9233",
"N. c #49A538",
"B. c #55B136",
"V. c #6EB93D",
"C. c #298647",
"Z. c #39854A",
"A. c #2E934B",
"S. c #349649",
"D. c #388A5F",
"F. c #2F9251",
"G. c #3C9A55",
"H. c #36AD48",
"J. c #428849",
"K. c #578847",
"L. c #499746",
"P. c #58934A",
"I. c #4A8459",
"U. c #578D51",
"Y. c #439555",
"T. c #539758",
"R. c #6D8346",
"E. c #688446",
"W. c #738A47",
"Q. c #72864A",
"!. c #728849",
"~. c #7A954A",
"^. c #7D9B49",
"/. c #75875C",
"(. c #7A9455",
"). c #47A844",
"_. c #52AF52",
"`. c #70B34F",
"'. c #63A955",
"]. c #568F69",
"[. c #7C9166",
"{. c #5EBE72",
"}. c #52CD4C",
"|. c #6FCD5A",
" X c #7DC85E",
".X c #6AE144",
"XX c #79C768",
"oX c #77D86B",
"OX c #71FF61",
"+X c #829749",
"@X c #819E49",
"#X c #87AD47",
"$X c #84A449",
"%X c #8DB24F",
"&X c #87A557",
"*X c #8FB358",
"=X c #96B557",
"-X c #94BC57",
";X c #92B659",
":X c #95BA59",
">X c #9ABD5A",
",X c #849865",
"<X c #93AC63",
"1X c #9CB765",
"2X c #A0BA66",
"3X c #97C057",
"4X c #9AC356",
"5X c #9ECB56",
"6X c #9DC259",
"7X c #8CD154",
"8X c #87D55A",
"9X c #A1CD56",
"0X c #A1C559",
"qX c #A4CB59",
"wX c #A9CD5A",
"eX c #A5D256",
"rX c #ADDC57",
"tX c #ABD459",
"yX c #AAD85C",
"uX c #B3D75B",
"iX c #9EEF5D",
"pX c #B1E75B",
"aX c #B8F65E",
"sX c #9DC463",
"dX c #8ED86B",
"fX c #A5C765",
"gX c #A3CD61",
"hX c #B1C669",
"jX c #A6D261",
"kX c #ABD561",
"lX c #AEDB61",
"zX c #B4DD61",
"xX c #A8E667",
"cX c #B4E460",
"vX c #BCE562",
"bX c #BAE861",
"nX c #A5FF6B",
"mX c #B5F771",
"MX c #C0F75D",
"NX c #C5D772",
"BX c #CAF078",
"VX c #D5FD79",
"CX c #BBDD85",
"ZX c #86E183",
"AX c #B4F48D",
"SX c #CCF88E",
/* pixels */
"R.kX>X:X:X:X;X*X0XtXeX3X:X>X3X>X<X;X;X-XwX9X0X=X-X,XX.>X-X;X*X0XtXuX^.",
"R.yX>XqXwXwX4XqX>XrXrX0X&X:X0X/.  r.fX3X6XyXo.<X1X= * Y p.3X9X:XyXaX#X",
"+XaX6X0XeXtXeXeX6X;X3X<X. q.[.X { S   R.:XY d 8.Y & 4.V X i tX>X:XlX^.",
"!.pX9X:X>X5X3X9X0X6X1X@ ,.*., R 5.| ' P % T :.#.6 t.N.g.| x i 0X6XvX$X",
"Q.wX;X>X*X:X1Xa 2 <X@ =.G @.C ~.iXj.h.N i P F w m VXxX).B q ,X6XtXyX~.",
"Q.lX6X:X>XP . Y ,.@ 9 0 f N n.pXeXoXD > s.-.7 O.MXV. XT.e +.q.>X;XfX^.",
"E.zXtX=.. A <._ B 1.1.W , t.BXj.N.T.0 >.1 d - '.ZXf.S.} 9 Q e 9.>XjX^.",
"R.jXs q 1.B ] Y.|  .u.{ N 3.{.h.C.5.x M 5.4 N  .D.h.4.I.x b } > eXvX$X",
"Q.(.=.*.B z.n.XXAXm.[ 5.| N Z 1.C ].o.- :.g N ; W ;.8 d.o.; -.d o.p.$X",
"!.vX-.- z.8XcX`.V.8X[ S.| b G T O :.9.7 I H u t G y = ^ ~ g d H 0 y T ",
"Q.9.w _ XX X XdXb.m.'.dX( ( ! h g S v 6.*.N 3.~ s s -.v ) I.Z R ! L ,X",
"a.8.C v m.v.b.|.8Xb.XXZX] S Z U ^ n H.C. .R H y *.u.m N.H.h.l.E u f E.",
"/.0.- S.z.oX_.n 8XhXO.).n { &.C.v.pX'.) L.{ ; 8.s E .XVXZ.L.L.2.9 8.u ",
"7 8 ].] `.NXXXz.'.hXn.B 5.C.<._ ).nXn.hX%XY.! u q.> ^ N.|.NX7XY.H g $.",
"  Z 1.V n.SX..( ' U.| / 7.u.C N k.).z.sXVXH.V d 4 d = y ] |.nX) N 7 2 ",
"Q.k   5.x.L...| ` l ( F.) G 3 %.2.A.z ] OXg.V d ^ k.| h . ] c.Z.V e ,X",
"Q.d.M 2.Y.l ] G.5.' Y.A.k.= j 5 3._ Z ! ] _.} e y._.` 9 q.=.l.I.N *.9.",
": 6 7.B J K 5.C.V N } G.l.S $.p Z D s T J 3.W -.r 3.-.1 %.9.N F ;.*.r ",
"a.s -.W = T 2._ ~ 3 7 2.Z.( U $.{ _ $.=.S < e ;.u x Z *.e g D r e D y ",
"R.&X  s ;.! W @ r 8.~ M :.2.U + Y E d ;.4.5 *.Y Q J.c b 3.t T 0.<Xs ~.",
"Q.gXi.  Q 4.0 r.G N 2.;.7 > f K.8.> H  .H $ 3.~ 0 ].9.; :.d 7 r.4XjX$X",
"!.vXwX0.= U F z.).9 7 -.r O.K.aXM.h p T & J K T = :.~ d d H L u r.lX$X",
"!.bX&Xh t * J.[ x *.d + Q.7XnXdXB.).k 3 ..` Y s -.z / I.U V 3.P ,XcX#X",
"!.rXo.w ,.C 0 F u.=.0 J B.M.j.N.8X`.U.T.( R Z Q m j.H.h.C.J 9 y [.gX@X",
"!.wX>Xa.@ I 0 3.3.e 1.L.L.dX'.f.xX1Xm.H.z 2.1.Z.M.VXP.L.L.{ ; =.t e.+X",
"!.lX>X0X(.  -.-.p 1.D.( =XNXT.] '.CX] / I.h.<.B .X|.P.NX7XG.H P =.  $X",
"^.MX9X>X9Xw.- ! O t N ' M.dX{ ) V ..) _ 7.e.0 Z | x... XmXk.V t > fX@X",
"R.yX5X>X=Xi.o M 2Xi.X Z.x.[ ..A. .l | F.] : 5 $.4.C.N ..}.k.R q 1XvX^.",
"Q.jX;X-X:X>XX.(.<XT A 1.J.b 5.A.( ' Y.F.C.= j 4 1.C P Q | T.N *.a.jX^.",
"!.tX0X3XuX>X9XrX= w 6.B 0 K Z.2.F 9 E Y..._ $.f S ;.h T V F -.-.7 gX@X",
"p.bXuX5XtXqX>X4X>X2 e Z L ~ { B 8.a t { Z.( P T  .V $.,.S 3 6 &.9 kX^.",
"R.yXtX5X9X0X;X:XwX9X4 # -.{ Q   r :.;.M =.3.d   =.U L _ 1.a [.$.@XcX$X",
"W.jX-X4X>X;X-X6X>X3X>X% N _ = >X&X- 2.-.O . p.sX0.  Q  .& !.6X;X3XjX$X",
"W.vXyXeX0X0XrX9X>X5XwX. - * :XqX6XW.9 9 X.;XeX0X0Xs r X (.rX5X6X0XcX$X",
"R.cXeX9XwX>X9XeX9X>XeXsX7 ,X5XyX0X6X~.< >X>XeX3X0XtXa !.6XwXeXeX:XcX#X"
};
